<?xml version="1.0" standalone="no"?><!DOCTYPE svg PUBLIC "-//W3C//DTD SVG 1.1//EN" "http://www.w3.org/Graphics/SVG/1.1/DTD/svg11.dtd"><svg t="1763392672374" class="icon" viewBox="0 0 1024 1024" version="1.1" xmlns="http://www.w3.org/2000/svg" p-id="4716" xmlns:xlink="http://www.w3.org/1999/xlink" width="200" height="200"><path d="M966.4 396.8c-30.4-44.8-80-73.6-136-80 1.6-9.6 1.6-19.2 1.6-28.8 0-145.6-116.8-262.4-259.2-262.4C440 25.6 329.6 128 315.2 259.2c-19.2-3.2-36.8-6.4-57.6-6.4-136 0-244.8 100.8-244.8 222.4 0 121.6 72 206.4 184 217.6h3.2c3.2 0 4.8 1.6 8 1.6h152c19.2 0 33.6-14.4 33.6-32s-16-32-33.6-32H211.2c-1.6 0-3.2 0-4.8-1.6-80-8-128-65.6-128-153.6S160 316.8 259.2 316.8c27.2 0 51.2 4.8 75.2 14.4 9.6 4.8 22.4 3.2 30.4-3.2 9.6-6.4 14.4-17.6 12.8-27.2V288c0-108.8 88-198.4 195.2-198.4S768 177.6 768 288c0 17.6-1.6 35.2-6.4 51.2-3.2 9.6 0 20.8 6.4 28.8s17.6 12.8 27.2 11.2h11.2c44.8 0 84.8 20.8 107.2 54.4l1.6 1.6c14.4 17.6 30.4 44.8 30.4 83.2 0 73.6-67.2 108.8-129.6 112L683.2 632c-20.8 0-36.8 14.4-36.8 32s16 32 36.8 32l128-1.6h9.6c3.2 0 4.8 0 8-1.6 91.2-8 180.8-70.4 180.8-176 1.6-54.4-22.4-96-43.2-120z" fill="#43484D" p-id="4717"></path><path d="M512 998.4c-8 0-14.4-3.2-20.8-8L353.6 875.2c-12.8-11.2-16-32-3.2-44.8s32-16 44.8-3.2l84.8 70.4V476.8c0-17.6 14.4-32 32-32s32 14.4 32 32V968c0 12.8-8 24-19.2 28.8-3.2 1.6-8 1.6-12.8 1.6z" fill="#229BFF" p-id="4718"></path><path d="M512 998.4c-9.6 0-19.2-4.8-24-11.2-11.2-14.4-9.6-33.6 4.8-44.8l137.6-112c14.4-11.2 33.6-9.6 44.8 4.8 11.2 14.4 9.6 33.6-4.8 44.8L532.8 992c-6.4 4.8-14.4 6.4-20.8 6.4z" fill="#229BFF" p-id="4719"></path></svg>